<svg xmlns="http://www.w3.org/2000/svg" viewBox="0 0 1024 1024" role="img" aria-labelledby="title desc">
  <title id="title">OneLake mark</title>
  <desc id="desc">A lake-drop mark with converging data streams and one central lake node.</desc>
  <defs>
    <linearGradient id="lake" x1="192" y1="96" x2="864" y2="928" gradientUnits="userSpaceOnUse">
      <stop offset="0" stop-color="#10C7B6"/>
      <stop offset="0.46" stop-color="#1267E8"/>
      <stop offset="1" stop-color="#082A63"/>
    </linearGradient>
    <linearGradient id="stream" x1="288" y1="400" x2="816" y2="768" gradientUnits="userSpaceOnUse">
      <stop offset="0" stop-color="#E8FFF7"/>
      <stop offset="0.52" stop-color="#FFFFFF"/>
      <stop offset="1" stop-color="#BFE0FF"/>
    </linearGradient>
    <linearGradient id="shine" x1="296" y1="240" x2="672" y2="600" gradientUnits="userSpaceOnUse">
      <stop offset="0" stop-color="#FFFFFF" stop-opacity="0.92"/>
      <stop offset="1" stop-color="#D7F7FF" stop-opacity="0.62"/>
    </linearGradient>
    <filter id="shadow" x="-10%" y="-8%" width="120%" height="122%" color-interpolation-filters="sRGB">
      <feDropShadow dx="0" dy="32" stdDeviation="36" flood-color="#082A63" flood-opacity="0.22"/>
    </filter>
  </defs>
  <path filter="url(#shadow)" d="M512 70.4C700.8 187.2 867.2 385.6 867.2 576c0 208-153.6 352-355.2 377.6C310.4 928 156.8 784 156.8 576 156.8 385.6 323.2 187.2 512 70.4Z" fill="url(#lake)"/>
  <path d="M280 604.8c113.6-179.2 280-232 499.2-139.2-75.2 32-134.4 88-187.2 169.6-76.8 115.2-180.8 163.2-310.4 136 86.4-24 150.4-65.6 192-123.2 43.2-59.2 102.4-89.6 177.6-91.2-132.8-59.2-256-43.2-371.2 48Z" fill="url(#stream)" opacity="0.94"/>
  <path d="M296 435.2c67.2-78.4 147.2-131.2 240-158.4" fill="none" stroke="url(#shine)" stroke-width="54.4" stroke-linecap="round" opacity="0.64"/>
  <path d="M347.2 700.8c108.8 17.6 208-20.8 299.2-116.8" fill="none" stroke="rgba(255,255,255,.42)" stroke-width="38.4" stroke-linecap="round"/>
  <circle cx="667.2" cy="470.4" r="48" fill="#FFFFFF" opacity="0.96"/>
  <circle cx="510.4" cy="627.2" r="54.4" fill="#0B2C61" opacity="0.9"/>
</svg>
