<svg xmlns="http://www.w3.org/2000/svg" viewBox="0 0 1840 520" role="img" aria-labelledby="title desc">
  <title id="title">OneLake logo</title>
  <desc id="desc">OneLake wordmark with a lake-drop symbol and converging data streams.</desc>
  <defs>
    <linearGradient id="lake" x1="84" y1="40" x2="378" y2="404" gradientUnits="userSpaceOnUse">
      <stop offset="0" stop-color="#10C7B6"/>
      <stop offset="0.46" stop-color="#1267E8"/>
      <stop offset="1" stop-color="#082A63"/>
    </linearGradient>
    <linearGradient id="stream" x1="126" y1="175" x2="357" y2="336" gradientUnits="userSpaceOnUse">
      <stop offset="0" stop-color="#E8FFF7"/>
      <stop offset="0.52" stop-color="#FFFFFF"/>
      <stop offset="1" stop-color="#BFE0FF"/>
    </linearGradient>
    <linearGradient id="shine" x1="126" y1="108" x2="294" y2="315" gradientUnits="userSpaceOnUse">
      <stop offset="0" stop-color="#FFFFFF" stop-opacity="0.92"/>
      <stop offset="1" stop-color="#D7F7FF" stop-opacity="0.62"/>
    </linearGradient>
  </defs>
  <g>
    <path d="M224 30.8c82.6 51.1 155.4 137.9 155.4 221.2 0 91-67.2 154-155.4 165.2C135.8 406 68.6 343 68.6 252c0-83.3 72.8-170.1 155.4-221.2Z" fill="url(#lake)"/>
    <path d="M122.5 264.6c49.7-78.4 122.5-101.5 218.4-60.9-32.9 14-58.8 38.5-81.9 74.2-33.6 50.4-79.1 71.4-135.8 59.5 37.8-10.5 65.8-28.7 84-53.9 18.9-25.9 44.8-39.2 77.7-39.9-58.1-25.9-112-18.9-162.4 21Z" fill="url(#stream)" opacity=".94"/>
    <path d="M129.5 190.4c29.4-34.3 64.4-57.4 105-69.3" fill="none" stroke="url(#shine)" stroke-width="23.8" stroke-linecap="round" opacity=".64"/>
    <path d="M151.9 306.6c47.6 7.7 91-9.1 130.9-51.1" fill="none" stroke="rgba(255,255,255,.42)" stroke-width="16.8" stroke-linecap="round"/>
    <circle cx="292" cy="205.8" r="21" fill="#FFFFFF" opacity=".96"/>
    <circle cx="223.3" cy="274.4" r="23.8" fill="#0B2C61" opacity=".9"/>
  </g>
  <g fill="#0F172A">
    <path d="M562 345.5c-30.8 0-56.5-10.4-77-31.2-20.4-20.8-30.7-47.1-30.7-79s10.2-58.3 30.7-79.1c20.5-20.8 46.2-31.2 77-31.2 30.9 0 56.5 10.4 76.9 31.2 20.5 20.8 30.7 47.2 30.7 79.1s-10.2 58.2-30.7 79C618.5 335.1 592.9 345.5 562 345.5Zm0-40.3c18.2 0 33-6.5 44.5-19.5 11.4-13 17.2-29.8 17.2-50.4s-5.8-37.5-17.2-50.5c-11.5-13-26.3-19.5-44.5-19.5-18.2 0-33.1 6.5-44.7 19.5-11.5 13-17.3 29.9-17.3 50.5s5.8 37.4 17.3 50.4c11.6 13 26.5 19.5 44.7 19.5Z"/>
    <path d="M709.1 341.4V180.2h42.3v22.2c10.9-17.3 28.1-25.9 51.4-25.9 19 0 34.2 6.2 45.5 18.5 11.3 12.3 17 29.1 17 50.4v96h-43.8v-88.1c0-12.8-3.1-22.4-9.4-28.9-6.3-6.5-14.6-9.8-25-9.8-11.4 0-20.4 3.8-27.1 11.3-6.8 7.5-10.1 18-10.1 31.5v84h-40.8Z"/>
    <path d="M983.3 345.5c-25.8 0-47.3-7.9-64.5-23.8-17.2-15.9-25.8-36.6-25.8-62.2 0-25.3 8.2-45.7 24.5-61.1 16.4-15.4 36.6-23.1 60.7-23.1 24.5 0 44.1 7.7 58.8 23.1 14.7 15.4 22.1 34.9 22.1 58.5 0 5.3-.4 10.6-1.1 15.8H936.2c2.5 11.8 8.1 20.8 16.9 27.1 8.8 6.3 19.5 9.4 32.2 9.4 17.7 0 31.8-5.7 42.4-17.2l24 25.5c-16.8 18.7-39.6 28-68.4 28Zm-46.5-101h80.4c-1.8-10.9-6.2-19.6-13.2-26.2-7-6.6-15.9-9.9-26.8-9.9-10.6 0-19.6 3.2-27 9.7-7.4 6.5-11.9 15.3-13.4 26.4Z"/>
    <path d="M1094.3 341.4V129.1h44.6v174.3h99.5v38h-144.1Z"/>
    <path d="M1329.6 345.5c-23.4 0-42.8-8-58.2-24.1-15.4-16.1-23.1-36.6-23.1-61.6s7.7-45.5 23.1-61.6c15.4-16.1 34.8-24.1 58.2-24.1 23.9 0 42.7 8.8 56.2 26.3v-22.2h42.3v163.2h-42.3v-22.5c-13.5 17.7-32.3 26.6-56.2 26.6Zm9.7-38.8c13.7 0 25-4.5 34-13.5 9-9 13.5-20.1 13.5-33.4s-4.5-24.5-13.5-33.5c-9-9-20.3-13.5-34-13.5-13.7 0-25 4.5-34 13.5-9 9-13.5 20.2-13.5 33.5s4.5 24.4 13.5 33.4c9 9 20.3 13.5 34 13.5Z"/>
    <path d="M1470.4 341.4V129.1h42.3v117.2l61.5-68.1h51.8l-66.5 72.5 73.6 90.7h-53.6l-45.4-57.5-21.4 23.2v34.3h-42.3Z"/>
    <path d="M1722.1 345.5c-25.8 0-47.3-7.9-64.5-23.8-17.2-15.9-25.8-36.6-25.8-62.2 0-25.3 8.2-45.7 24.5-61.1 16.4-15.4 36.6-23.1 60.7-23.1 24.5 0 44.1 7.7 58.8 23.1 14.7 15.4 22.1 34.9 22.1 58.5 0 5.3-.4 10.6-1.1 15.8H1675c2.5 11.8 8.1 20.8 16.9 27.1 8.8 6.3 19.5 9.4 32.2 9.4 17.7 0 31.8-5.7 42.4-17.2l24 25.5c-16.8 18.7-39.6 28-68.4 28Zm-46.5-101h80.4c-1.8-10.9-6.2-19.6-13.2-26.2-7-6.6-15.9-9.9-26.8-9.9-10.6 0-19.6 3.2-27 9.7-7.4 6.5-11.9 15.3-13.4 26.4Z"/>
  </g>
  <text x="462" y="416" fill="#64748B" font-family="-apple-system, BlinkMacSystemFont, 'Segoe UI', sans-serif" font-size="46" font-weight="500">Unified data lakehouse control plane</text>
</svg>
